<svg name="null" width="512px" height="512px" xmlns="http://www.w3.org/2000/svg" xml:space="preserve" enable-background="new 0 0 76.266 56.69" version="1.1">
<defs><radialGradient id="radialgradient1" cx="8.3372" cy="11.5456" r="496.8352" gradientUnits="userSpaceOnUse" spreadMethod="pad">
<stop offset="0" style="stop-color:#00ffff;stop-opacity:1" />
<stop offset="0.3778" style="stop-color:#00ffff;stop-opacity:1" />
<stop offset="1" style="stop-color:#004499;stop-opacity:1" />
</radialGradient>
</defs>
<path d=" M 489.0384,396.8709 414.4149,322.2392 C 399.5513,307.4352 374.9369,307.8851 359.5554,323.272 L 321.9597,360.8594 C 319.5845,359.5502 317.126,358.1828 314.5411,356.7321 290.7999,343.5775 258.3059,325.5474 224.1129,291.3292 189.8185,257.0389 171.7717,224.4949 158.5768,200.7384 157.1843,198.2215 155.8503,195.7949 154.5328,193.4906 L 179.765,168.2958 192.1701,155.8755 C 207.5751,140.4663 207.9999,115.8588 193.171,101.012 L 118.5475,26.3718 C 103.7186,11.5456 79.0931,11.9955 63.6881,27.4046 L 42.6566,48.5567 43.2313,49.1274 C 36.1792,58.1257 30.2862,68.5041 25.9008,79.6959 21.8584,90.3489 19.3415,100.5149 18.1908,110.7016 8.3372,192.3897 45.6663,267.0464 146.9726,368.3543 287.0087,508.3808 399.8595,497.8025 404.7279,497.2861 415.331,496.0187 425.4928,493.4851 435.8197,489.4745 446.9144,485.1406 457.2857,479.256 466.2785,472.2191 L 466.738,472.6273 488.0444,451.7638 C 503.4175,436.3574 503.8604,411.7416 489.0384,396.8709 Z" style="fill:url(#radialgradient1);stroke:#0;stroke-width:0;stroke-opacity:1;stroke-linecap:butt;stroke-linejoin:miter;stroke-miterlimit:4;stroke-dashoffset:0;"/>
</svg>
